<svg xmlns="http://www.w3.org/2000/svg" width="36" height="23.4" viewBox="0 0 36 23.4">
  <path id="bx-coin" d="M21,9C12.054,9,3,11.783,3,17.1v7.2c0,5.317,9.054,8.1,18,8.1s18-2.783,18-8.1V17.1C39,11.783,29.946,9,21,9ZM6.6,24.3V22.145a17.981,17.981,0,0,0,3.6,1.548v3.385c-2.362-.925-3.6-2.027-3.6-2.779Zm21.6.266v3.548a33.87,33.87,0,0,1-5.4.644v-3.6a39.15,39.15,0,0,0,5.4-.593Zm-9,4.194a33.818,33.818,0,0,1-5.4-.644V24.568a39.8,39.8,0,0,0,5.4.594v3.6Zm12.6-1.681V23.694a17.875,17.875,0,0,0,3.6-1.548V24.3c0,.752-1.236,1.854-3.6,2.779ZM21,21.6c-9.318,0-14.4-2.972-14.4-4.5s5.082-4.5,14.4-4.5,14.4,2.972,14.4,4.5S30.319,21.6,21,21.6Z" transform="translate(-3 -9)"/>
</svg>
