<svg xmlns="http://www.w3.org/2000/svg" width="36" height="24.263" viewBox="0 0 36 24.263">
  <path id="bxs-coin" d="M21,7.5c-8.945,0-18,2.783-18,8.1s9.055,8.1,18,8.1,18-2.783,18-8.1S29.946,7.5,21,7.5ZM12,25.388v5.4a37.809,37.809,0,0,0,7.2.974v-5.4a38.1,38.1,0,0,1-7.2-.974Zm10.8.972v5.4a37.789,37.789,0,0,0,7.2-.974v-5.4A37.789,37.789,0,0,1,22.8,26.36Zm10.8-2.126v5.4c3.241-1.36,5.4-3.342,5.4-5.935V18.3C39,20.891,36.841,22.874,33.6,24.234Zm-25.2,5.4v-5.4C5.16,22.876,3,20.891,3,18.3v5.4c0,2.591,2.16,4.576,5.4,5.935Z" transform="translate(-3 -7.5)"/>
</svg>
