<svg xmlns="http://www.w3.org/2000/svg" width="47" height="47" viewBox="0 0 47 47">
  <path id="coins" d="M26.438,29.375a57.6,57.6,0,0,1-12.576-1.239Q8.353,26.9,6.609,25.014a62.917,62.917,0,0,0,13.954,1.423,70.445,70.445,0,0,0,10.717-.781A33.239,33.239,0,0,0,39.472,23.5q3.12-1.376,3.122-2.937V17.625h1.469A3.95,3.95,0,0,1,46.2,18.749a2.608,2.608,0,0,1,.8,1.813V23.5q0,1.606-2.753,2.961a27.4,27.4,0,0,1-7.482,2.133A63.938,63.938,0,0,1,26.438,29.375ZM23.5,17.625a63.851,63.851,0,0,1-8.17-.482A38.262,38.262,0,0,1,9.409,16a24.8,24.8,0,0,1-3.74-1.423,9.632,9.632,0,0,1-2.135-1.308q-.6-.551-.6-.781v-1.79q2.341,1.744,8.079,2.868A65.056,65.056,0,0,0,23.5,14.688a64.872,64.872,0,0,0,12.485-1.124q5.739-1.125,8.077-2.87V11.75q0,1.56-2.753,2.914a27.945,27.945,0,0,1-7.481,2.157A61.906,61.906,0,0,1,23.5,17.625Zm0-5.875a61.811,61.811,0,0,1-10.327-.8A27.945,27.945,0,0,1,5.692,8.79Q2.939,7.436,2.939,5.853T5.692,2.915A27.484,27.484,0,0,1,13.173.781,63.53,63.53,0,0,1,23.5,0,63.53,63.53,0,0,1,33.827.781a27.484,27.484,0,0,1,7.481,2.135q2.753,1.354,2.753,2.938T41.308,8.79a27.945,27.945,0,0,1-7.481,2.157A61.811,61.811,0,0,1,23.5,11.75ZM1.469,14.688q0,1.56,3.122,2.938a33.183,33.183,0,0,0,8.192,2.157,70.652,70.652,0,0,0,10.717.781,69.727,69.727,0,0,0,9.822-.666,38.918,38.918,0,0,0,7.8-1.812q-.046.091-.161.3a4.257,4.257,0,0,1-.712.756A8.835,8.835,0,0,1,38.808,20.2a17.565,17.565,0,0,1-2.478,1.148,23.659,23.659,0,0,1-3.673,1.078,48.912,48.912,0,0,1-5.21.757q-3.167.319-6.884.321a61.811,61.811,0,0,1-10.327-.8A27.945,27.945,0,0,1,2.755,20.54Q0,19.186,0,17.625V14.688a2.844,2.844,0,0,1,1.469-2.157Zm0,15.468v2.157q0,1.56,3.122,2.938a33.183,33.183,0,0,0,8.192,2.157,70.652,70.652,0,0,0,10.717.781,71.061,71.061,0,0,0,9.708-.642,38.861,38.861,0,0,0,7.825-1.79q-.688,2.3-6.563,3.833a55.352,55.352,0,0,1-13.908,1.537,63.53,63.53,0,0,1-10.327-.781,27.54,27.54,0,0,1-7.482-2.133Q0,36.858,0,35.25V32.313A2.844,2.844,0,0,1,1.469,30.156Zm24.969,2.157a68.932,68.932,0,0,0,9.754-.666,38.854,38.854,0,0,0,7.78-1.812q-.642,2.3-6.517,3.855A54.847,54.847,0,0,1,23.5,35.25a63.53,63.53,0,0,1-10.327-.781,27.484,27.484,0,0,1-7.481-2.135q-2.753-1.354-2.755-2.96V26.438a2.838,2.838,0,0,1,1.332-2.065q.688.23,1.193.367a2.479,2.479,0,0,0-.872,1.7q0,1.56,3.075,2.938a32.352,32.352,0,0,0,8.124,2.157A69.9,69.9,0,0,0,26.438,32.313Zm16.156,5.875V36.031a2.847,2.847,0,0,1,1.469,2.157v2.938q0,1.606-2.753,2.961a27.4,27.4,0,0,1-7.482,2.133A63.939,63.939,0,0,1,23.5,47,54.847,54.847,0,0,1,9.546,45.44q-5.875-1.56-6.517-3.855a38.816,38.816,0,0,0,7.78,1.813,68.788,68.788,0,0,0,9.754.665,70.445,70.445,0,0,0,10.717-.781,33.239,33.239,0,0,0,8.192-2.157Q42.592,39.749,42.594,38.188Z" fill="gray"/>
</svg>
