<svg xmlns="http://www.w3.org/2000/svg" width="18.5" height="17.268" viewBox="0 0 18.5 17.268">
  <g id="network-4" transform="translate(-2.25 -2.25)">
    <path id="Path_1531" data-name="Path 1531" d="M23.842,28.233A1.233,1.233,0,1,1,22.608,27,1.233,1.233,0,0,1,23.842,28.233Z" transform="translate(-8.641 -11.183)"/>
    <path id="Path_1532" data-name="Path 1532" d="M23.842,5.733A1.233,1.233,0,1,1,22.608,4.5a1.233,1.233,0,0,1,1.233,1.233Z" transform="translate(-8.641 -1.017)"/>
    <path id="Path_1533" data-name="Path 1533" d="M4.717,16.983A1.233,1.233,0,1,1,3.483,15.75,1.233,1.233,0,0,1,4.717,16.983Z" transform="translate(0 -6.1)"/>
    <path id="Path_1534" data-name="Path 1534" d="M19.3,8.417a2.464,2.464,0,0,0-2.379,1.85H14.28a2.446,2.446,0,0,0-3.386-1.63L8.935,6.189a2.468,2.468,0,1,0-.96.774L9.933,9.411a2.42,2.42,0,0,0,0,2.944L7.974,14.8a2.442,2.442,0,0,0-1.008-.22,2.492,2.492,0,1,0,1.967.995l1.959-2.448A2.446,2.446,0,0,0,14.28,11.5h2.642A2.462,2.462,0,1,0,19.3,8.417ZM5.733,4.717A1.233,1.233,0,1,1,6.967,5.95,1.233,1.233,0,0,1,5.733,4.717ZM6.967,18.284A1.233,1.233,0,1,1,8.2,17.051,1.233,1.233,0,0,1,6.967,18.284ZM11.9,12.117a1.233,1.233,0,1,1,1.233-1.233A1.233,1.233,0,0,1,11.9,12.117Zm7.4,0a1.233,1.233,0,1,1,1.233-1.233A1.233,1.233,0,0,1,19.3,12.117Z" transform="translate(-1.017)"/>
  </g>
</svg>
